<?xml version='1.0' encoding='utf-8'?>
<svg xmlns="http://www.w3.org/2000/svg" width="91.44mm" height="91.44mm" version="1.1" style="shape-rendering:geometricPrecision; text-rendering:geometricPrecision; image-rendering:optimizeQuality; fill-rule:evenodd; clip-rule:evenodd" viewBox="0 0 9144 9144"> <defs> <style type="text/css">  .fil0 {fill:#F0F0F0} .fil1 {fill:#011627;fill-rule:nonzero}  </style> </defs> <g id="Layer_x0020_1"> <metadata id="CorelCorpID_0Corel-Layer"/> <g id="_2744492862240"> <polygon class="fil0" points="0,0 9144,0 9144,9144 0,9144 "/> <path class="fil1" d="M3345 2455l2454 0c245,0 467,100 628,262 162,161 262,383 262,628l0 2454c0,245 -100,467 -262,628 -161,162 -383,262 -628,262l-2454 0c-245,0 -467,-100 -628,-262 -162,-161 -262,-383 -262,-628l0 -2454c0,-245 100,-467 262,-628 161,-162 383,-262 628,-262zm2521 694c48,0 88,40 88,88 0,49 -40,88 -88,88 -49,0 -88,-39 -88,-88 0,-48 39,-88 88,-88zm-1294 241c653,0 1182,529 1182,1182 0,653 -529,1182 -1182,1182 -653,0 -1182,-529 -1182,-1182 0,-653 529,-1182 1182,-1182zm1013 1182c0,-559 -454,-1013 -1013,-1013 -559,0 -1013,454 -1013,1013 0,559 454,1013 1013,1013 559,0 1013,-454 1013,-1013zm214 -1947l-2454 0c-198,0 -378,81 -509,211 -130,131 -211,311 -211,509l0 2454c0,198 81,378 211,509 131,130 311,211 509,211l2454 0c198,0 378,-81 509,-211 130,-131 211,-311 211,-509l0 -2454c0,-198 -81,-378 -211,-509 -131,-130 -311,-211 -509,-211z"/> </g> </g> </svg>